<?xml version="1.0" standalone="no"?><!DOCTYPE svg PUBLIC "-//W3C//DTD SVG 1.1//EN" "http://www.w3.org/Graphics/SVG/1.1/DTD/svg11.dtd"><svg t="1650418798316" class="icon" viewBox="0 0 1024 1024" version="1.1" xmlns="http://www.w3.org/2000/svg" p-id="3335" xmlns:xlink="http://www.w3.org/1999/xlink" width="200" height="200"><defs><style type="text/css">@font-face { font-family: feedback-iconfont; src: url("//at.alicdn.com/t/font_1031158_u69w8yhxdu.woff2?t=1630033759944") format("woff2"), url("//at.alicdn.com/t/font_1031158_u69w8yhxdu.woff?t=1630033759944") format("woff"), url("//at.alicdn.com/t/font_1031158_u69w8yhxdu.ttf?t=1630033759944") format("truetype"); }
</style></defs><path d="M511.6 63.6c-246.9 0-448 201.2-448 448 0 247.3 201.2 448 448 448s448-200.7 448-448c0-246.9-200.7-448-448-448z m259.9 318.5L474.6 699.3c-7 7.3-16.5 12.1-27.4 12.1-10.5 0-20.5-4.7-27.4-12.1L252 520c-7-7.3-11.5-17.8-11.5-29.4 0-23.1 17.5-41.4 38.9-41.4 10.5 0 20.5 4.7 27.4 12.1l140.7 149.9 270-287.8c7-7.3 16.5-12.1 27.4-12.1 21.5 0 38.9 18.3 38.9 41.4-0.8 11.6-5.3 22.1-12.3 29.4z m0 0" p-id="3336" fill="#bfbfbf"></path></svg>