<?xml version="1.0" standalone="no"?><!DOCTYPE svg PUBLIC "-//W3C//DTD SVG 1.1//EN" "http://www.w3.org/Graphics/SVG/1.1/DTD/svg11.dtd"><svg t="1650783120186" class="icon" viewBox="0 0 1024 1024" version="1.1" xmlns="http://www.w3.org/2000/svg" p-id="20008" xmlns:xlink="http://www.w3.org/1999/xlink" width="200" height="200"><defs><style type="text/css">@font-face { font-family: feedback-iconfont; src: url("//at.alicdn.com/t/font_1031158_u69w8yhxdu.woff2?t=1630033759944") format("woff2"), url("//at.alicdn.com/t/font_1031158_u69w8yhxdu.woff?t=1630033759944") format("woff"), url("//at.alicdn.com/t/font_1031158_u69w8yhxdu.ttf?t=1630033759944") format("truetype"); }
</style></defs><path d="M641.479957 96.481402l0 0.75213c-3.347235 0-17.154705-1.298576-51.909254-0.75213L278.116205 96.481402c-57.33073 0-103.817484 46.482661-103.817484 103.817484l0 622.905926c0 57.335846 46.485731 103.817484 103.817484 103.817484l467.181235 0c57.334823 0 103.817484-46.481637 103.817484-103.817484l0-467.180212 0-51.909254L641.479957 96.481402zM667.432025 719.388351 355.980597 719.388351c-14.326287 0-25.956162-11.629875-25.956162-25.956162 0-14.32731 11.629875-25.953092 25.956162-25.953092l311.451428 0c14.32731 0 25.956162 11.625782 25.956162 25.953092C693.388187 707.758476 681.758312 719.388351 667.432025 719.388351zM667.432025 563.661613 355.980597 563.661613c-14.326287 0-25.956162-11.628852-25.956162-25.955138 0-14.32731 11.629875-25.956162 25.956162-25.956162l311.451428 0c14.32731 0 25.956162 11.629875 25.956162 25.956162C693.388187 552.033785 681.758312 563.661613 667.432025 563.661613zM693.388187 304.115346c-28.653597 0-51.90823-23.227004-51.90823-51.90823L641.479957 148.389632l155.725714 155.725714L693.388187 304.115346z" p-id="20009" fill="#79B929"></path></svg>