<?xml version="1.0" standalone="no"?><!DOCTYPE svg PUBLIC "-//W3C//DTD SVG 1.1//EN" "http://www.w3.org/Graphics/SVG/1.1/DTD/svg11.dtd"><svg t="1650783204640" class="icon" viewBox="0 0 1024 1024" version="1.1" xmlns="http://www.w3.org/2000/svg" p-id="21974" xmlns:xlink="http://www.w3.org/1999/xlink" width="200" height="200"><defs><style type="text/css">@font-face { font-family: feedback-iconfont; src: url("//at.alicdn.com/t/font_1031158_u69w8yhxdu.woff2?t=1630033759944") format("woff2"), url("//at.alicdn.com/t/font_1031158_u69w8yhxdu.woff?t=1630033759944") format("woff"), url("//at.alicdn.com/t/font_1031158_u69w8yhxdu.ttf?t=1630033759944") format("truetype"); }
</style></defs><path d="M829.318042 395.60506l0-34.388205c0-163.820066-133.287679-297.107745-297.107745-297.107745l-41.373293 0c-163.820066 0-297.107745 133.287679-297.107745 297.107745l0 34.388205c-63.956637 13.401218-112.1298 70.216201-112.1298 138.097218l0 37.586037c0 77.80811 63.284325 141.113925 141.093459 141.113925l61.903885 0c17.746176 0 32.145118-14.397918 32.145118-32.145118L316.741921 424.732447c0-17.746176-14.397918-32.145118-32.145118-32.145118l-26.578332 0 0-31.370475c0-128.369669 104.448864-232.818533 232.818533-232.818533l41.373293 0c128.369669 0 232.818533 104.448864 232.818533 232.818533l0 31.370475-26.578332 0c-17.746176 0-32.145118 14.397918-32.145118 32.145118l0 255.524674c0 17.746176 14.397918 32.145118 32.145118 32.145118l34.545794 0c-11.70867 67.673286-60.616566 122.56343-126.917598 141.840472-6.966669-32.302707-35.688827-56.602136-70.047356-56.602136L500.400824 797.640576c-39.552831 0-71.718415 32.165584-71.718415 71.718415l0 17.349133c0 39.532365 32.165584 71.697949 71.718415 71.697949l75.631538 0c35.518958 0 64.86431-26.00528 70.52524-59.924811 90.709955-21.234627 157.466358-95.560426 169.781848-187.05014 70.298066-7.974625 125.107369-67.74594 125.107369-140.142807l0-37.586037C941.447842 465.820238 893.272633 409.006278 829.318042 395.60506zM252.451686 648.112004l-29.758768 0c-42.357713 0-76.804247-34.468023-76.804247-76.824713l0-37.586037c0-42.357713 34.446533-76.824713 76.804247-76.824713l29.758768 0L252.451686 648.112004zM604.891643 886.707101c0 15.905248-12.954033 28.837792-28.859281 28.837792L500.400824 915.544893c-15.905248 0-28.859281-12.933567-28.859281-28.837792l0-17.349133c0-15.905248 12.954033-28.859281 28.859281-28.859281l75.631538 0c15.905248 0 28.859281 12.954033 28.859281 28.859281L604.891643 886.707101zM877.15863 571.287291c0 42.357713-34.446533 76.824713-76.804247 76.824713l-29.758768 0 0-191.235462 29.758768 0c42.357713 0 76.804247 34.468023 76.804247 76.824713L877.15863 571.287291z" p-id="21975" fill="#F54987"></path></svg>